<svg width="860" height="620" viewBox="0 0 860 620" fill="none" xmlns="http://www.w3.org/2000/svg">
  <rect width="860" height="620" rx="28" fill="#101828"/>
  <rect x="32" y="32" width="796" height="556" rx="22" fill="#162033"/>
  <rect x="64" y="72" width="220" height="120" rx="20" fill="#223150"/>
  <rect x="306" y="72" width="220" height="120" rx="20" fill="#1E3559"/>
  <rect x="548" y="72" width="248" height="120" rx="20" fill="#233C66"/>
  <rect x="64" y="224" width="460" height="320" rx="22" fill="#1A2740"/>
  <rect x="548" y="224" width="248" height="148" rx="22" fill="#1A2740"/>
  <rect x="548" y="396" width="248" height="148" rx="22" fill="#1A2740"/>
  <rect x="92" y="100" width="112" height="16" rx="8" fill="#3B82F6"/>
  <rect x="92" y="128" width="82" height="44" rx="16" fill="#FF8A1F"/>
  <rect x="334" y="100" width="112" height="16" rx="8" fill="#93C5FD"/>
  <rect x="334" y="128" width="82" height="44" rx="16" fill="#3B82F6"/>
  <rect x="576" y="100" width="140" height="16" rx="8" fill="#9FD4FF"/>
  <rect x="576" y="132" width="160" height="14" rx="7" fill="#D8E7FF"/>
  <rect x="576" y="158" width="120" height="14" rx="7" fill="#D8E7FF"/>
  <path d="M104 472C152 430.667 200 389.333 248 348C296 306.667 344 330.333 392 312C440 293.667 456 252 496 236" stroke="#FF8A1F" stroke-width="14" stroke-linecap="round"/>
  <path d="M104 506C152 482 200 458 248 414C296 370 344 394 392 366C440 338 464 304 496 286" stroke="#4EA0FF" stroke-width="14" stroke-linecap="round"/>
  <rect x="580" y="252" width="84" height="16" rx="8" fill="#9FD4FF"/>
  <rect x="580" y="286" width="176" height="12" rx="6" fill="#CEDDF8"/>
  <rect x="580" y="308" width="148" height="12" rx="6" fill="#CEDDF8"/>
  <rect x="580" y="430" width="84" height="16" rx="8" fill="#FFD29E"/>
  <rect x="580" y="464" width="176" height="12" rx="6" fill="#F2D7B8"/>
  <rect x="580" y="486" width="148" height="12" rx="6" fill="#F2D7B8"/>
</svg>
